HIERARCHY
ROOT Hips
{
  OFFSET 43.0842 91.1655 101.099
  CHANNELS 6 Xposition Yposition Zposition Zrotation Xrotation Yrotation
  JOINT LeftUpLeg
  {
    OFFSET 8.64259 1.95398 -2.38835
    CHANNELS 3 Zrotation Xrotation Yrotation
    JOINT LeftLeg
    {
      OFFSET 43.7702 0 0
      CHANNELS 3 Zrotation Xrotation Yrotation
      JOINT LeftFoot
      {
        OFFSET 40.6238 0 0
        CHANNELS 3 Zrotation Xrotation Yrotation
        JOINT LeftToeBase
        {
          OFFSET 12.7242 0 0
          CHANNELS 3 Zrotation Xrotation Yrotation
          End Site
          {
            OFFSET 0 0 0
          }
        }
      }
    }
  }
  JOINT RightUpLeg
  {
    OFFSET -8.2249 1.95398 -2.59336
    CHANNELS 3 Zrotation Xrotation Yrotation
    JOINT RightLeg
    {
      OFFSET 43.5653 0 0
      CHANNELS 3 Zrotation Xrotation Yrotation
      JOINT RightFoot
      {
        OFFSET 40.6238 0 0
        CHANNELS 3 Zrotation Xrotation Yrotation
        JOINT RightToeBase
        {
          OFFSET 12.7242 0 0
          CHANNELS 3 Zrotation Xrotation Yrotation
          End Site
          {
            OFFSET 0 0 0
          }
        }
      }
    }
  }
  JOINT Spine
  {
    OFFSET 0.165834 0.87714 6.61349
    CHANNELS 3 Zrotation Xrotation Yrotation
    JOINT Spine1
    {
      OFFSET 7.38963 1.71661e-005 0
      CHANNELS 3 Zrotation Xrotation Yrotation
      JOINT Spine2
      {
        OFFSET 11.9445 1.14441e-005 0
        CHANNELS 3 Zrotation Xrotation Yrotation
        JOINT Spine3
        {
          OFFSET 14.7254 4.19617e-005 0
          CHANNELS 3 Zrotation Xrotation Yrotation
          JOINT Spine4
          {
            OFFSET 10.9679 0 0
            CHANNELS 3 Zrotation Xrotation Yrotation
            JOINT RightShoulder
            {
              OFFSET 2.46616 -1.6653 3.69651
              CHANNELS 3 Zrotation Xrotation Yrotation
              JOINT RightArm
              {
                OFFSET 13.0012 0 0
                CHANNELS 3 Zrotation Xrotation Yrotation
                JOINT RightForeArm
                {
                  OFFSET 28.7848 1.52588e-005 0
                  CHANNELS 3 Zrotation Xrotation Yrotation
                  JOINT RightHand
                  {
                    OFFSET 26.5688 1.52588e-005 0
                    CHANNELS 3 Zrotation Xrotation Yrotation
                    End Site
                    {
                      OFFSET 0 0 0
                    }
                  }
                }
              }
            }
            JOINT LeftShoulder
            {
              OFFSET 2.38034 -1.29275 -3.7523
              CHANNELS 3 Zrotation Xrotation Yrotation
              JOINT LeftArm
              {
                OFFSET 16.3182 6.10351e-005 0
                CHANNELS 3 Zrotation Xrotation Yrotation
                JOINT LeftForeArm
                {
                  OFFSET 27.0901 0 0
                  CHANNELS 3 Zrotation Xrotation Yrotation
                  JOINT LeftHand
                  {
                    OFFSET 24.5451 1.52588e-005 0
                    CHANNELS 3 Zrotation Xrotation Yrotation
                    End Site
                    {
                      OFFSET 0 0 0
                    }
                  }
                }
              }
            }
            JOINT Neck
            {
              OFFSET 5.0226 -0.0266342 0
              CHANNELS 3 Zrotation Xrotation Yrotation
              JOINT Head
              {
                OFFSET 6.69364 2.86102e-005 0
                CHANNELS 3 Zrotation Xrotation Yrotation
                End Site
                {
                  OFFSET 0 0 0
                }
              }
            }
          }
        }
      }
    }
  }
}
MOTION
Frames:	14
Frame Time:	0.0333333
90.2099 90.7743 -13.5912 96.0392 -36.4936 94.0206 -168.471 7.80335 94.5531 -35.3138 16.4636 -4.81251 65.3276 8.0005 23.0471 36.6147 8.29882 3.25772 174.445 19.8484 80.5149 -32.6275 -5.49367 -2.20445 60.2084 0.354415 1.56155 34.6471 -2.96383 -1.01537 0.196889 7.4374 -89.8056 11.9983 0.484392 0.335347 0.327399 0.497524 0.313748 -22.2079 0.360088 0.46507 -2.1952 0.3601 0.465064 91.3756 -58.2204 -97.1406 3.51104 10.8778 -20.9103 -16.4343 13.4228 -58.967 -10.3634 -1.47103 4.35844 -98.6533 -52.7226 66.8852 -4.35746 15.7388 -52.646 19.2866 3.98249 -102.155 13.5303 0.980026 6.36428 -21.1961 -14.0605 -5.7784 7.61357 -15.7283 -12.3911 
90.2956 90.4907 -13.1453 95.5437 -37.0163 93.5557 -168.216 8.18139 94.6544 -35.7691 16.4097 -5.08609 65.651 8.28087 23.2697 36.7781 8.51332 3.2421 174.185 20.9147 80.4291 -33.9211 -5.74291 -1.88836 60.7495 -0.317578 1.36067 35.6727 -3.43651 -1.36689 0.192825 7.39705 -89.7735 12.0788 0.490319 0.398015 0.407907 0.507405 0.376043 -22.1272 0.348073 0.526988 -2.11453 0.34809 0.526984 91.6071 -58.0262 -96.8503 3.5323 9.75731 -21.1495 -16.7005 13.2756 -58.3526 -10.7532 -1.57928 4.65465 -98.4659 -52.596 67.1091 -5.26356 14.7008 -52.4609 19.4189 4.93763 -101.616 13.1805 0.944283 5.93319 -20.7194 -13.9099 -5.57149 7.27604 -15.4882 -12.239 
90.4392 90.3568 -12.5097 94.6906 -37.5064 92.7686 -167.972 8.2499 94.6915 -35.2964 17.022 -5.31274 65.5303 8.46684 23.6092 36.9098 8.41962 3.81878 174.043 22.7541 80.4191 -36.2087 -3.48971 -1.68322 61.9667 -1.50343 3.37259 35.4602 -2.79843 -3.16416 0.173537 7.30604 -89.7496 12.2607 0.463599 0.447617 0.589749 0.482837 0.426774 -21.9451 0.307639 0.566254 -1.93248 0.307644 0.566249 91.8862 -57.4667 -96.5545 3.89858 8.96074 -21.4444 -16.27 12.8198 -58.2498 -12.0429 -1.96279 5.27751 -98.8013 -53.0474 66.7841 -5.91014 12.741 -51.8986 19.1878 5.85711 -101.426 13.7442 1.01592 6.47384 -20.4671 -13.8304 -4.65328 7.10832 -15.3728 -12.5728 
90.4091 90.2217 -11.5308 93.5304 -37.3638 92.3617 -167.885 8.95857 95.4718 -35.2411 16.2645 -5.27491 65.895 8.78989 22.8661 37.4361 8.95661 4.12275 173.847 23.4172 81.0638 -37.0019 -3.03358 -1.21467 63.2416 -2.83801 3.31645 35.9807 -2.77904 -4.29696 0.100844 7.19206 -89.7764 12.4891 0.306895 0.411398 0.818099 0.324701 0.397489 -21.7166 0.169058 0.484613 -1.70399 0.169071 0.48461 92.0516 -57.5055 -96.3148 3.44499 7.74263 -22.9511 -15.9109 12.9222 -57.285 -14.7118 -2.80982 6.34072 -99.0151 -53.4647 66.6212 -6.22953 9.98896 -51.3245 18.5828 6.40824 -101.396 14.04 1.0693 6.54891 -20.1457 -13.5337 -3.81651 6.94686 -15.0285 -12.7541 
90.343 90.3844 -10.181 92.684 -36.8985 92.7053 -167.595 9.12469 97.1012 -34.3919 15.665 -4.89621 65.8788 8.8491 21.4853 37.8889 9.58934 4.00102 173.794 22.9719 82.5732 -36.703 -1.12891 -0.713802 63.542 -2.88164 2.89857 36.6579 -3.44715 -3.33718 0.0250915 7.09142 -89.8072 12.6901 0.142013 0.368487 1.01911 0.158103 0.361879 -21.5156 0.0246754 0.394131 -1.50296 0.0247033 0.394133 92.0713 -57.9301 -96.2155 2.6778 6.60611 -25.4041 -16.4834 12.0553 -56.4963 -17.4423 -3.6834 6.04856 -97.6497 -52.4168 68.2112 -7.54015 6.5934 -51.2511 18.5747 7.23814 -101.93 14.4203 1.13027 6.79086 -19.6895 -13.1594 -3.56996 6.26579 -14.5315 -12.517 
90.3496 90.9109 -8.32408 92.4327 -35.3739 94.0977 -167.312 8.63736 99.6574 -32.6609 13.557 -3.82787 65.5818 8.64428 18.0517 38.5003 10.4627 3.75986 173.968 20.4553 84.5642 -34.8503 -4.382 -0.185876 63.161 -1.67793 -0.775065 36.8162 -3.72735 -2.64776 -0.0883604 7.04987 -89.9929 12.7753 -0.172002 0.0349293 1.10433 -0.170292 0.0424582 -21.431 -0.174561 -0.0183822 -1.41831 -0.174544 -0.0183788 92.2139 -56.515 -96.2521 2.44099 5.79057 -27.8 -17.4592 9.89784 -58.0221 -19.5512 -4.34008 5.58893 -96.2568 -51.7562 69.9988 -9.20283 2.8928 -50.6865 16.8267 8.09387 -103.416 14.4331 1.08083 7.54012 -19.5059 -13.3133 -1.95943 5.43024 -14.6213 -13.48 
90.3784 91.8463 -5.97778 92.2003 -32.3369 95.8413 -167.712 8.74983 102.483 -31.1645 10.827 -2.34517 65.1079 6.87244 13.9438 40.0914 11.4799 6.26663 173.617 16.0089 87.0313 -29.9917 -4.91677 0.938829 62.2957 -0.709153 -3.43742 36.5098 -4.01945 -0.947648 -0.073889 6.9886 -90.0248 12.8959 -0.158708 -0.0305341 1.225 -0.159896 -0.0235279 -21.3102 -0.1422 -0.0768234 -1.29752 -0.142194 -0.0768236 92.9074 -54.7122 -95.5508 4.37908 6.53217 -27.9952 -18.3861 5.63488 -63.1238 -22.6024 -5.42473 6.9079 -93.7013 -48.9853 72.9447 -9.61809 0.947507 -53.5204 16.2881 10.2192 -101.548 14.6939 1.18199 6.86005 -20.5378 -13.8475 -4.74493 4.75169 -15.1962 -13.0568 
90.3651 92.6253 -3.92848 91.871 -27.5638 96.1883 -166.931 10.2343 103.814 -30.6907 10.5419 -2.64714 64.5485 6.90468 13.9909 39.7948 9.44036 10.1825 172.457 13.6842 87.8991 -28.4976 -2.62954 2.59423 62.0016 0.787157 -4.93727 36.0382 -4.13599 0.426059 -0.0116462 6.95374 -89.8347 12.9671 0.0562304 0.32304 1.29612 0.0703801 0.320247 -21.2388 -0.0434749 0.325003 -1.22615 -0.0434654 0.324999 94.3883 -52.1068 -93.7526 6.89105 6.96344 -25.7747 -17.1733 2.85885 -68.4752 -27.121 -6.88149 6.66639 -92.1729 -46.1187 74.4808 -8.47581 -0.352277 -58.5863 14.3263 13.4398 -97.0332 17.2299 1.72575 6.3472 -22.6118 -15.0248 -9.90504 5.05328 -16.7951 -12.6295 
90.086 92.7713 -2.34089 91.8144 -21.6343 96.0948 -164.727 15.422 103.881 -38.243 12.9392 -4.59374 63.7211 5.023 16.9889 38.3151 6.74214 11.3089 170.433 14.3122 87.5378 -32.718 -3.51596 4.12178 60.6161 2.66814 -5.70622 39.3782 -5.9383 0.570051 -0.15617 7.10928 -89.6201 12.6542 -0.128666 0.777028 0.983004 -0.0943493 0.781927 -21.5506 -0.356239 0.702443 -1.53798 -0.356229 0.702433 94.4849 -52.7278 -93.5215 7.45412 9.18374 -24.8475 -17.9387 0.219405 -72.2939 -30.6494 -8.10157 6.94634 -91.3389 -43.3877 75.0537 -9.37574 -4.19648 -62.4929 12.6292 17.687 -91.4783 19.7116 2.23095 6.02086 -23.7945 -15.6773 -14.367 6.12701 -17.9439 -12.3104 
89.9641 92.4862 -1.17169 92.4123 -15.6271 97.0003 -163.104 19.0847 102.281 -44.6075 15.2111 -5.91585 62.8769 2.15648 13.8581 37.248 6.74422 8.29878 167.953 17.6946 87.2088 -43.1563 -7.76843 4.42197 59.2584 2.68911 -2.6142 39.5251 -4.22193 -6.95382 -0.470667 7.34222 -89.8172 12.1935 -0.849147 0.456406 0.522727 -0.82822 0.493326 -22.0145 -0.947049 0.180092 -2.00181 -0.947055 0.18008 94.4546 -52.8116 -93.5548 8.05524 9.9635 -25.3954 -16.8474 0.424512 -74.0993 -33.464 -9.28445 8.24002 -91.7301 -43.1076 74.3513 -10.5984 -8.98839 -62.4679 10.8377 20.5787 -84.8137 20.9147 2.47661 5.23998 -24.6221 -16.3736 -14.2881 7.25554 -18.8764 -12.4294 
90.6575 91.6155 -0.675942 93.1425 -13.6945 97.215 -163.121 17.6165 100.844 -42.8647 13.4209 -7.94263 64.3613 2.96749 20.3275 35.746 5.39186 6.8157 168.774 23.8314 86.3191 -54.605 -12.0091 1.76238 56.0323 4.27521 -0.0602893 39.9321 -4.18433 -8.08132 -0.447686 7.43994 -90.0416 11.9943 -0.909699 0.0161119 0.323647 -0.908119 0.0561326 -22.214 -0.872481 -0.258057 -2.20132 -0.872484 -0.258056 94.83 -52.5626 -93.0272 8.29096 9.32165 -25.2191 -16.1731 0.0872858 -75.0472 -36.4715 -10.7552 10.1541 -91.9283 -43.2733 74.0787 -5.72513 -9.74151 -58.9591 9.82678 16.4284 -75.1141 21.6348 2.6187 3.82694 -26.0041 -16.8814 -12.7656 8.8672 -19.6465 -12.764 
91.1846 91.2096 -0.0308288 93.1473 -12.3776 97.1249 -164.992 15.2685 99.9395 -39.7846 6.22049 -7.38505 66.4696 5.99149 22.1546 34.6305 5.32376 4.11954 173.921 26.2434 85.1758 -54.4382 -11.4219 -1.8838 56.9938 1.81879 3.01985 40.7644 -4.81673 -7.63838 -0.552991 7.40907 -90.1041 12.0555 -1.14844 -0.0816079 0.385021 -1.15092 -0.0309866 -22.1537 -1.07083 -0.423034 -2.14106 -1.07082 -0.423033 94.5258 -53.9506 -93.2893 7.19198 7.05639 -24.7 -16.7625 -0.942202 -76.5452 -38.5066 -11.9382 12.001 -91.1031 -42.5679 75.2143 2.81096 -7.50401 -51.0258 9.14397 8.47007 -67.5154 22.4724 2.76272 2.31782 -26.213 -16.6373 -12.5645 9.97659 -19.4222 -11.8875 
91.3306 90.2894 1.39382 92.5317 -10.902 97.7164 -166.727 16.7785 100.733 -43.0736 12.9234 -3.99187 63.7586 3.25151 23.2133 39.146 11.5719 2.91611 -178.754 25.9851 85.0051 -45.7981 -4.94751 -6.04387 63.1603 -3.96207 13.2257 41.3595 -5.42608 -6.59515 -0.683729 7.42023 -90.2494 12.0326 -1.47704 -0.336424 0.362448 -1.49037 -0.271087 -22.178 -1.30763 -0.764844 -2.16529 -1.30762 -0.764851 94.2988 -55.4003 -93.4229 5.55883 3.60311 -25.4166 -17.2067 -1.20788 -77.131 -42.8563 -14.5447 15.0008 -90.9011 -42.8001 75.6016 9.139 -4.84177 -40.9906 9.88033 1.97904 -61.8599 20.7506 2.4646 3.23 -24.7727 -16.5352 -12.5779 9.82849 -18.9898 -10.7682 
91.4014 89.4807 3.05264 92.3274 -10.1541 97.6381 -167.559 17.041 101.815 -45.0333 18.0344 -1.87053 63.2381 5.48937 23.5918 40.2878 13.0948 2.65827 -172.629 26.0264 84.7395 -38.6241 -5.05561 -10.983 63.0885 -3.80491 25.7734 43.3997 -7.39144 -2.84246 -0.703972 7.44821 -90.2798 11.9751 -1.53156 -0.391871 0.305064 -1.54731 -0.324079 -22.2355 -1.34295 -0.834116 -2.22283 -1.34298 -0.834124 94.2751 -56.2285 -93.3442 4.48888 -0.637355 -26.3582 -16.6762 -1.27319 -76.9686 -42.1583 -14.6003 16.3661 -91.8831 -44.3016 74.4394 14.6753 -1.72798 -28.2849 10.4607 -1.68394 -56.0372 20.2537 2.38947 2.9214 -24.94 -16.6293 -12.0221 10.705 -19.1208 -10.6582 
